<svg width="24" height="24" viewBox="0 0 24 24" fill="none" xmlns="http://www.w3.org/2000/svg">
<path fill-rule="evenodd" clip-rule="evenodd" d="M2 7C2 5.89543 2.89543 5 4 5H20C21.1046 5 22 5.89543 22 7V17C22 18.1046 21.1046 19 20 19H4C2.89543 19 2 18.1046 2 17V7ZM4 8C4 7.44772 4.44772 7 5 7H7C7.55228 7 8 7.44772 8 8V10C8 10.5523 7.55228 11 7 11H5C4.44772 11 4 10.5523 4 10V8ZM5 13C4.44772 13 4 13.4477 4 14V16C4 16.5523 4.44772 17 5 17H7C7.55228 17 8 16.5523 8 16V14C8 13.4477 7.55228 13 7 13H5ZM11 13C10.4477 13 10 13.4477 10 14V16C10 16.5523 10.4477 17 11 17H13C13.5523 17 14 16.5523 14 16V14C14 13.4477 13.5523 13 13 13H11ZM17 13C16.4477 13 16 13.4477 16 14V16C16 16.5523 16.4477 17 17 17H19C19.5523 17 20 16.5523 20 16V14C20 13.4477 19.5523 13 19 13H17ZM20 10C20 10.5523 19.5523 11 19 11H17C16.4477 11 16 10.5523 16 10V8C16 7.44772 16.4477 7 17 7H19C19.5523 7 20 7.44772 20 8V10ZM14 10C14 10.5523 13.5523 11 13 11H11C10.4477 11 10 10.5523 10 10V8C10 7.44772 10.4477 7 11 7H13C13.5523 7 14 7.44772 14 8V10Z" fill="black"/>
</svg>
