<svg width="24" height="24" viewBox="0 0 24 24" fill="none" xmlns="http://www.w3.org/2000/svg">
<path fill-rule="evenodd" clip-rule="evenodd" d="M3.5 3C3.22386 3 3 3.22386 3 3.5V17.5C3 17.7761 3.22386 18 3.5 18H5.26923C5.54537 18 5.76923 17.7761 5.76923 17.5V12.5C5.76923 12.2239 5.99309 12 6.26923 12H11.7308C12.0069 12 12.2308 12.2239 12.2308 12.5V17.5C12.2308 17.7761 12.4546 18 12.7308 18H14.5C14.7761 18 15 17.7761 15 17.5V3.5C15 3.22386 14.7761 3 14.5 3H12.7308C12.4546 3 12.2308 3.22386 12.2308 3.5V8.5C12.2308 8.77614 12.0069 9 11.7308 9H6.26923C5.99309 9 5.76923 8.77614 5.76923 8.5V3.5C5.76923 3.22386 5.54537 3 5.26923 3H3.5ZM16 19.3134V21H22V19.3134H20.2327V12H18.6287C18.2921 12.189 17.9455 12.3496 17.5891 12.4819C17.2327 12.6142 16.797 12.7276 16.2822 12.822V14.1118H18.0495V19.3134H16Z" fill="black"/>
</svg>
