<svg width="24" height="24" viewBox="0 0 24 24" fill="none" xmlns="http://www.w3.org/2000/svg">
<path fill-rule="evenodd" clip-rule="evenodd" d="M3.5 3C3.22386 3 3 3.22386 3 3.5V17.5C3 17.7761 3.22386 18 3.5 18H5.26923C5.54537 18 5.76923 17.7761 5.76923 17.5V12.5C5.76923 12.2239 5.99309 12 6.26923 12H11.7308C12.0069 12 12.2308 12.2239 12.2308 12.5V17.5C12.2308 17.7761 12.4546 18 12.7308 18H14.5C14.7761 18 15 17.7761 15 17.5V3.5C15 3.22386 14.7761 3 14.5 3H12.7308C12.4546 3 12.2308 3.22386 12.2308 3.5V8.5C12.2308 8.77614 12.0069 9 11.7308 9H6.26923C5.99309 9 5.76923 8.77614 5.76923 8.5V3.5C5.76923 3.22386 5.54537 3 5.26923 3H3.5ZM15.6002 19.8315V21H22V19.2751H20.1674C19.9479 19.2751 19.6949 19.289 19.4086 19.3168C19.1318 19.3354 18.8789 19.3586 18.6498 19.3864C19.022 19.0155 19.38 18.6399 19.7236 18.2597C20.0767 17.8702 20.3869 17.4853 20.6542 17.1051C20.931 16.7156 21.1505 16.3308 21.3128 15.9505C21.475 15.5611 21.5562 15.1808 21.5562 14.8099C21.5562 14.3833 21.4846 13.9985 21.3414 13.6553C21.1982 13.3122 20.993 13.0201 20.7258 12.779C20.4585 12.5286 20.1388 12.3385 19.7665 12.2087C19.4038 12.0696 18.9982 12 18.5496 12C17.9005 12 17.3421 12.1206 16.8744 12.3617C16.4068 12.5935 15.9486 12.9413 15.5 13.4049L16.6454 14.5039C16.8744 14.2628 17.1178 14.0541 17.3756 13.8779C17.6333 13.6924 17.9291 13.5997 18.2632 13.5997C18.6641 13.5997 18.9791 13.7156 19.2081 13.9474C19.4372 14.17 19.5518 14.4992 19.5518 14.9351C19.5518 15.2504 19.4515 15.5842 19.2511 15.9366C19.0602 16.2798 18.7882 16.6553 18.435 17.0634C18.0914 17.4621 17.6762 17.8934 17.1894 18.357C16.7122 18.8114 16.1825 19.3029 15.6002 19.8315Z" fill="black"/>
</svg>
