<svg width="24" height="24" viewBox="0 0 24 24" fill="none" xmlns="http://www.w3.org/2000/svg">
<path d="M21.7062 15.3805C21.5001 15.1532 21.2355 15.0332 20.9416 15.0332C20.7009 15.0332 20.1109 15.1164 19.8241 15.8867C19.7518 16.0805 19.731 16.1837 19.6335 16.1732C19.4683 16.1568 18.8255 15.47 18.6154 14.4616L18.0938 12.024C18.5059 11.3565 18.9295 10.8412 19.3521 10.4917C19.579 10.3064 19.8383 10.2083 20.1523 10.1913C20.9539 10.1366 21.2456 10.0358 21.4425 9.89728C21.7676 9.66298 21.9462 9.32403 21.9462 8.94284C21.9462 8.60747 21.8193 8.30845 21.5785 8.07814C21.3461 7.85561 21.0361 7.73814 20.6833 7.73814C20.1647 7.73814 19.5824 7.97811 18.9026 8.47151C18.5013 8.76318 18.0757 9.18723 17.6164 9.75564C17.467 9.19816 17.3392 8.93843 17.2442 8.78314C16.9509 8.2992 16.4743 8.2992 16.3175 8.2992L16.1467 8.30193L11.3041 8.41625L11.5767 7.25924C11.7507 6.50423 11.9791 5.90682 12.2546 5.4836C12.3886 5.27767 12.5937 5.03223 12.8089 5.03223C12.8902 5.03223 13.051 5.04547 13.3515 5.10788C14.1874 5.2886 14.4999 5.3094 14.6625 5.3094C15.0214 5.3094 15.337 5.18942 15.576 4.96247C15.8231 4.72733 15.9536 4.41969 15.9536 4.07297C15.9536 3.8019 15.8645 3.40978 15.4398 3.08071C15.1465 2.85356 14.744 2.7384 14.2439 2.7384C13.4942 2.7384 12.6996 2.97817 11.8818 3.45076C11.0703 3.91978 10.4029 4.56805 9.89855 5.37791C9.45621 6.08795 9.07293 7.08504 8.73125 8.41625H6.59712L6.12684 10.2719H8.26727L6.64083 16.8105C6.30398 18.1644 6.05728 18.4975 5.98983 18.5674C5.80596 18.7574 5.42667 18.7973 5.14088 18.7973C4.78723 18.7973 4.41025 18.7719 4.01687 18.7215C3.74664 18.6885 3.54092 18.6723 3.38836 18.6723C2.99373 18.6723 2.66907 18.7748 2.42384 18.9766C2.15046 19.2012 2 19.5259 2 19.8909C2 20.176 2.09246 20.5862 2.53353 20.9195C2.83487 21.1464 3.24568 21.2616 3.75505 21.2616C5.03035 21.2616 6.21888 20.7549 7.28804 19.756C8.32758 18.7843 9.08911 17.3577 9.55182 15.5123L10.8376 10.2726L15.2232 10.347L15.6947 12.3727L14.7337 13.7907C14.5606 14.0447 14.3028 14.3582 13.9651 14.7239C13.7886 14.9172 13.6713 15.0235 13.6034 15.0788C13.3269 14.7409 13.0132 14.5694 12.6721 14.5694C12.3517 14.5694 12.0606 14.7007 11.8312 14.9485C11.6135 15.183 11.4985 15.4768 11.4985 15.797C11.4985 16.1816 11.663 16.5239 11.9743 16.7865C12.2594 17.0274 12.6118 17.1497 13.0209 17.1497C13.5282 17.1497 14.0472 16.9561 14.5642 16.5745C14.9956 16.2553 15.5512 15.6234 16.2608 14.6436C16.7168 15.9548 17.3636 16.7979 17.6716 17.1499C18.1577 17.7055 18.9427 18.0366 19.7715 18.0366C20.4751 18.0366 20.8735 17.742 21.2248 17.4817L21.2559 17.4588C21.8708 17.004 21.9998 16.5037 21.9998 16.1631C21.9994 15.8615 21.8979 15.5913 21.7062 15.3805Z" fill="black"/>
</svg>
